# xmcd
#
# Track frame offsets:
#	150
#	20605
#	39189
#	57922
#	77488
#	92928
#	105060
#	122243
#	137130
#	146387
#	161943
#	182473
#
# Disc length: 2704 seconds
#
# Revision: 0
# Processed by: cddbd v1.5.2PL0 Copyright (c) Steve Scherf et al.
# Submitted via: EasyCDDAExtractor 10.0.3.1
#
DISCID=940a8e0c
DTITLE=Various Artist - OST - TO MY
DYEAR=1900
DGENRE=
TTITLE0=MYSLOVITZ - Książka Z Drogą W Tytule
TTITLE1=WILKI - Son Of The Blue Sky
TTITLE2=TAXI - Celebrejszyn
TTITLE3=MYSLOVITZ - Sekrety I Kłamstwa
TTITLE4=CREW - Coś Do Zabawy
TTITLE5=HEDONE - The Eye
TTITLE6=REZERWAT - Zaopiekuj Się Mną - REMIX RADIO EDIT
TTITLE7=HEDONE - My Death
TTITLE8=O.N.A. - Hystoryjka
TTITLE9=MYSLOVITZ - My
TTITLE10=YOKA - Nadzieje Ze Szkła
TTITLE11=M2 - Tajemnice Asturias
EXTD=
EXTT0=
EXTT1=
EXTT2=
EXTT3=
EXTT4=
EXTT5=
EXTT6=
EXTT7=
EXTT8=
EXTT9=
EXTT10=
EXTT11=
PLAYORDER=
